<mxfile host="app.diagrams.net" modified="2021-03-25T11:28:18.810Z" agent="5.0 (Macintosh; Intel Mac OS X 11_0_1) AppleWebKit/537.36 (KHTML, like Gecko) Chrome/89.0.4389.90 Safari/537.36" etag="B2ZEAOOeXUdfRgdu7Ykw" version="14.4.9" type="github">
  <diagram id="smtT8wupvltv7x-k8p_4" name="Page-1">
    <mxGraphModel dx="652" dy="446" grid="1" gridSize="10" guides="1" tooltips="1" connect="1" arrows="1" fold="1" page="1" pageScale="1" pageWidth="850" pageHeight="1100" math="0" shadow="0">
      <root>
        <mxCell id="0" />
        <mxCell id="1" parent="0" />
        <mxCell id="euIUzY9tBhmxN2oQmPMZ-3" value="&lt;h1&gt;Drip&lt;/h1&gt;&lt;p&gt;Everywhere, anytime, in a second&lt;/p&gt;" style="text;html=1;strokeColor=none;fillColor=none;spacing=5;spacingTop=-20;whiteSpace=wrap;overflow=hidden;rounded=0;" vertex="1" parent="1">
          <mxGeometry x="40" y="40" width="190" height="70" as="geometry" />
        </mxCell>
        <mxCell id="euIUzY9tBhmxN2oQmPMZ-4" value="A short message. LOL" style="rounded=0;whiteSpace=wrap;html=1;" vertex="1" parent="1">
          <mxGeometry x="40" y="160" width="200" height="40" as="geometry" />
        </mxCell>
        <mxCell id="euIUzY9tBhmxN2oQmPMZ-5" value="&amp;nbsp;reminder" style="rounded=0;whiteSpace=wrap;html=1;align=left;" vertex="1" parent="1">
          <mxGeometry x="40" y="200" width="200" height="20" as="geometry" />
        </mxCell>
        <mxCell id="euIUzY9tBhmxN2oQmPMZ-6" value="&amp;nbsp;tags" style="rounded=0;whiteSpace=wrap;html=1;align=left;" vertex="1" parent="1">
          <mxGeometry x="40" y="220" width="200" height="20" as="geometry" />
        </mxCell>
        <mxCell id="euIUzY9tBhmxN2oQmPMZ-7" value="&amp;nbsp;actions" style="rounded=0;whiteSpace=wrap;html=1;align=left;" vertex="1" parent="1">
          <mxGeometry x="40" y="240" width="200" height="20" as="geometry" />
        </mxCell>
        <mxCell id="euIUzY9tBhmxN2oQmPMZ-8" value="&lt;h1&gt;Freeze&lt;/h1&gt;&lt;p&gt;Place it into position&lt;/p&gt;" style="text;html=1;strokeColor=none;fillColor=none;spacing=5;spacingTop=-20;whiteSpace=wrap;overflow=hidden;rounded=0;" vertex="1" parent="1">
          <mxGeometry x="280" y="40" width="190" height="70" as="geometry" />
        </mxCell>
        <mxCell id="euIUzY9tBhmxN2oQmPMZ-9" value="Table" style="rounded=0;whiteSpace=wrap;html=1;" vertex="1" parent="1">
          <mxGeometry x="280" y="160" width="200" height="40" as="geometry" />
        </mxCell>
        <mxCell id="euIUzY9tBhmxN2oQmPMZ-10" value="&amp;nbsp;row" style="rounded=0;whiteSpace=wrap;html=1;align=left;" vertex="1" parent="1">
          <mxGeometry x="280" y="200" width="200" height="20" as="geometry" />
        </mxCell>
        <mxCell id="euIUzY9tBhmxN2oQmPMZ-11" value="&amp;nbsp;row" style="rounded=0;whiteSpace=wrap;html=1;align=left;" vertex="1" parent="1">
          <mxGeometry x="280" y="220" width="200" height="20" as="geometry" />
        </mxCell>
        <mxCell id="euIUzY9tBhmxN2oQmPMZ-12" value="&amp;nbsp;row" style="rounded=0;whiteSpace=wrap;html=1;align=left;" vertex="1" parent="1">
          <mxGeometry x="280" y="240" width="200" height="20" as="geometry" />
        </mxCell>
        <mxCell id="euIUzY9tBhmxN2oQmPMZ-13" value="&lt;h1&gt;Mix&lt;/h1&gt;&lt;p&gt;Drops into lake, rivers into ocean&lt;/p&gt;" style="text;html=1;strokeColor=none;fillColor=none;spacing=5;spacingTop=-20;whiteSpace=wrap;overflow=hidden;rounded=0;" vertex="1" parent="1">
          <mxGeometry x="520" y="40" width="190" height="70" as="geometry" />
        </mxCell>
        <mxCell id="euIUzY9tBhmxN2oQmPMZ-14" value="Doc" style="rounded=0;whiteSpace=wrap;html=1;" vertex="1" parent="1">
          <mxGeometry x="520" y="160" width="200" height="40" as="geometry" />
        </mxCell>
        <mxCell id="euIUzY9tBhmxN2oQmPMZ-15" value="&amp;nbsp;block" style="rounded=0;whiteSpace=wrap;html=1;align=left;" vertex="1" parent="1">
          <mxGeometry x="520" y="200" width="200" height="20" as="geometry" />
        </mxCell>
        <mxCell id="euIUzY9tBhmxN2oQmPMZ-16" value="&amp;nbsp;block" style="rounded=0;whiteSpace=wrap;html=1;align=left;" vertex="1" parent="1">
          <mxGeometry x="520" y="220" width="200" height="20" as="geometry" />
        </mxCell>
        <mxCell id="euIUzY9tBhmxN2oQmPMZ-17" value="&amp;nbsp;block" style="rounded=0;whiteSpace=wrap;html=1;align=left;" vertex="1" parent="1">
          <mxGeometry x="520" y="240" width="200" height="20" as="geometry" />
        </mxCell>
        <mxCell id="euIUzY9tBhmxN2oQmPMZ-18" value="&lt;h1&gt;Filter&lt;/h1&gt;&lt;p&gt;Direction of flow&lt;/p&gt;" style="text;html=1;strokeColor=none;fillColor=none;spacing=5;spacingTop=-20;whiteSpace=wrap;overflow=hidden;rounded=0;" vertex="1" parent="1">
          <mxGeometry x="760" y="40" width="190" height="70" as="geometry" />
        </mxCell>
        <mxCell id="euIUzY9tBhmxN2oQmPMZ-19" value="&lt;h1&gt;Boil&lt;/h1&gt;&lt;p&gt;Direction of flow&lt;/p&gt;" style="text;html=1;strokeColor=none;fillColor=none;spacing=5;spacingTop=-20;whiteSpace=wrap;overflow=hidden;rounded=0;" vertex="1" parent="1">
          <mxGeometry x="1160" y="40" width="190" height="70" as="geometry" />
        </mxCell>
        <mxCell id="euIUzY9tBhmxN2oQmPMZ-21" value="&lt;h1&gt;Collect&lt;/h1&gt;&lt;p&gt;Direction of flow&lt;/p&gt;" style="text;html=1;strokeColor=none;fillColor=none;spacing=5;spacingTop=-20;whiteSpace=wrap;overflow=hidden;rounded=0;" vertex="1" parent="1">
          <mxGeometry x="1360" y="40" width="190" height="70" as="geometry" />
        </mxCell>
        <mxCell id="euIUzY9tBhmxN2oQmPMZ-22" value="&lt;h1&gt;Drain&lt;/h1&gt;&lt;p&gt;Direction of flow&lt;/p&gt;" style="text;html=1;strokeColor=none;fillColor=none;spacing=5;spacingTop=-20;whiteSpace=wrap;overflow=hidden;rounded=0;" vertex="1" parent="1">
          <mxGeometry x="960" y="40" width="190" height="70" as="geometry" />
        </mxCell>
        <mxCell id="euIUzY9tBhmxN2oQmPMZ-25" value="" style="edgeStyle=orthogonalEdgeStyle;rounded=0;orthogonalLoop=1;jettySize=auto;html=1;" edge="1" parent="1" source="euIUzY9tBhmxN2oQmPMZ-23" target="euIUzY9tBhmxN2oQmPMZ-24">
          <mxGeometry relative="1" as="geometry" />
        </mxCell>
        <mxCell id="euIUzY9tBhmxN2oQmPMZ-23" value="url" style="text;html=1;strokeColor=none;fillColor=none;align=center;verticalAlign=middle;whiteSpace=wrap;rounded=0;" vertex="1" parent="1">
          <mxGeometry x="40" y="320" width="40" height="20" as="geometry" />
        </mxCell>
        <mxCell id="euIUzY9tBhmxN2oQmPMZ-27" value="" style="edgeStyle=orthogonalEdgeStyle;rounded=0;orthogonalLoop=1;jettySize=auto;html=1;" edge="1" parent="1" source="euIUzY9tBhmxN2oQmPMZ-24" target="euIUzY9tBhmxN2oQmPMZ-26">
          <mxGeometry relative="1" as="geometry" />
        </mxCell>
        <mxCell id="euIUzY9tBhmxN2oQmPMZ-24" value="share" style="text;html=1;strokeColor=none;fillColor=none;align=center;verticalAlign=middle;whiteSpace=wrap;rounded=0;" vertex="1" parent="1">
          <mxGeometry x="160" y="320" width="40" height="20" as="geometry" />
        </mxCell>
        <mxCell id="euIUzY9tBhmxN2oQmPMZ-31" value="" style="edgeStyle=orthogonalEdgeStyle;rounded=0;orthogonalLoop=1;jettySize=auto;html=1;" edge="1" parent="1" source="euIUzY9tBhmxN2oQmPMZ-26" target="euIUzY9tBhmxN2oQmPMZ-30">
          <mxGeometry relative="1" as="geometry" />
        </mxCell>
        <mxCell id="euIUzY9tBhmxN2oQmPMZ-26" value="reminder" style="text;html=1;strokeColor=none;fillColor=none;align=center;verticalAlign=middle;whiteSpace=wrap;rounded=0;" vertex="1" parent="1">
          <mxGeometry x="260" y="320" width="60" height="20" as="geometry" />
        </mxCell>
        <mxCell id="euIUzY9tBhmxN2oQmPMZ-33" value="" style="edgeStyle=orthogonalEdgeStyle;rounded=0;orthogonalLoop=1;jettySize=auto;html=1;" edge="1" parent="1" source="euIUzY9tBhmxN2oQmPMZ-30" target="euIUzY9tBhmxN2oQmPMZ-32">
          <mxGeometry relative="1" as="geometry" />
        </mxCell>
        <mxCell id="euIUzY9tBhmxN2oQmPMZ-30" value="process" style="text;html=1;strokeColor=none;fillColor=none;align=center;verticalAlign=middle;whiteSpace=wrap;rounded=0;" vertex="1" parent="1">
          <mxGeometry x="400" y="320" width="60" height="20" as="geometry" />
        </mxCell>
        <mxCell id="euIUzY9tBhmxN2oQmPMZ-35" value="" style="edgeStyle=orthogonalEdgeStyle;rounded=0;orthogonalLoop=1;jettySize=auto;html=1;" edge="1" parent="1" source="euIUzY9tBhmxN2oQmPMZ-32" target="euIUzY9tBhmxN2oQmPMZ-34">
          <mxGeometry relative="1" as="geometry" />
        </mxCell>
        <mxCell id="euIUzY9tBhmxN2oQmPMZ-32" value="archive" style="text;html=1;strokeColor=none;fillColor=none;align=center;verticalAlign=middle;whiteSpace=wrap;rounded=0;" vertex="1" parent="1">
          <mxGeometry x="540" y="320" width="60" height="20" as="geometry" />
        </mxCell>
        <mxCell id="euIUzY9tBhmxN2oQmPMZ-34" value="sync" style="text;html=1;strokeColor=none;fillColor=none;align=center;verticalAlign=middle;whiteSpace=wrap;rounded=0;" vertex="1" parent="1">
          <mxGeometry x="680" y="320" width="60" height="20" as="geometry" />
        </mxCell>
        <mxCell id="euIUzY9tBhmxN2oQmPMZ-37" value="" style="edgeStyle=orthogonalEdgeStyle;rounded=0;orthogonalLoop=1;jettySize=auto;html=1;" edge="1" parent="1" source="euIUzY9tBhmxN2oQmPMZ-36" target="euIUzY9tBhmxN2oQmPMZ-24">
          <mxGeometry relative="1" as="geometry" />
        </mxCell>
        <mxCell id="euIUzY9tBhmxN2oQmPMZ-36" value="book name" style="text;html=1;strokeColor=none;fillColor=none;align=center;verticalAlign=middle;whiteSpace=wrap;rounded=0;" vertex="1" parent="1">
          <mxGeometry x="40" y="360" width="80" height="20" as="geometry" />
        </mxCell>
        <mxCell id="euIUzY9tBhmxN2oQmPMZ-40" value="" style="edgeStyle=orthogonalEdgeStyle;rounded=0;orthogonalLoop=1;jettySize=auto;html=1;" edge="1" parent="1" source="euIUzY9tBhmxN2oQmPMZ-38" target="euIUzY9tBhmxN2oQmPMZ-39">
          <mxGeometry relative="1" as="geometry" />
        </mxCell>
        <mxCell id="euIUzY9tBhmxN2oQmPMZ-38" value="/ac" style="text;html=1;strokeColor=none;fillColor=none;align=center;verticalAlign=middle;whiteSpace=wrap;rounded=0;" vertex="1" parent="1">
          <mxGeometry x="40" y="400" width="40" height="20" as="geometry" />
        </mxCell>
        <mxCell id="euIUzY9tBhmxN2oQmPMZ-42" value="" style="edgeStyle=orthogonalEdgeStyle;rounded=0;orthogonalLoop=1;jettySize=auto;html=1;" edge="1" parent="1" source="euIUzY9tBhmxN2oQmPMZ-39" target="euIUzY9tBhmxN2oQmPMZ-41">
          <mxGeometry relative="1" as="geometry" />
        </mxCell>
        <mxCell id="euIUzY9tBhmxN2oQmPMZ-39" value="command" style="text;html=1;strokeColor=none;fillColor=none;align=center;verticalAlign=middle;whiteSpace=wrap;rounded=0;" vertex="1" parent="1">
          <mxGeometry x="200" y="400" width="80" height="20" as="geometry" />
        </mxCell>
        <mxCell id="euIUzY9tBhmxN2oQmPMZ-44" value="" style="edgeStyle=orthogonalEdgeStyle;rounded=0;orthogonalLoop=1;jettySize=auto;html=1;" edge="1" parent="1" source="euIUzY9tBhmxN2oQmPMZ-41" target="euIUzY9tBhmxN2oQmPMZ-43">
          <mxGeometry relative="1" as="geometry" />
        </mxCell>
        <mxCell id="euIUzY9tBhmxN2oQmPMZ-41" value="dispatch" style="text;html=1;strokeColor=none;fillColor=none;align=center;verticalAlign=middle;whiteSpace=wrap;rounded=0;" vertex="1" parent="1">
          <mxGeometry x="360" y="400" width="80" height="20" as="geometry" />
        </mxCell>
        <mxCell id="euIUzY9tBhmxN2oQmPMZ-46" value="" style="edgeStyle=orthogonalEdgeStyle;rounded=0;orthogonalLoop=1;jettySize=auto;html=1;" edge="1" parent="1" source="euIUzY9tBhmxN2oQmPMZ-43" target="euIUzY9tBhmxN2oQmPMZ-45">
          <mxGeometry relative="1" as="geometry" />
        </mxCell>
        <mxCell id="euIUzY9tBhmxN2oQmPMZ-43" value="device" style="text;html=1;strokeColor=none;fillColor=none;align=center;verticalAlign=middle;whiteSpace=wrap;rounded=0;" vertex="1" parent="1">
          <mxGeometry x="520" y="400" width="80" height="20" as="geometry" />
        </mxCell>
        <mxCell id="euIUzY9tBhmxN2oQmPMZ-45" value="feedback" style="text;html=1;strokeColor=none;fillColor=none;align=center;verticalAlign=middle;whiteSpace=wrap;rounded=0;" vertex="1" parent="1">
          <mxGeometry x="680" y="400" width="80" height="20" as="geometry" />
        </mxCell>
        <mxCell id="euIUzY9tBhmxN2oQmPMZ-49" value="" style="edgeStyle=orthogonalEdgeStyle;rounded=0;orthogonalLoop=1;jettySize=auto;html=1;" edge="1" parent="1" source="euIUzY9tBhmxN2oQmPMZ-47" target="euIUzY9tBhmxN2oQmPMZ-48">
          <mxGeometry relative="1" as="geometry" />
        </mxCell>
        <mxCell id="euIUzY9tBhmxN2oQmPMZ-47" value="notes" style="text;html=1;strokeColor=none;fillColor=none;align=center;verticalAlign=middle;whiteSpace=wrap;rounded=0;" vertex="1" parent="1">
          <mxGeometry x="40" y="440" width="50" height="20" as="geometry" />
        </mxCell>
        <mxCell id="euIUzY9tBhmxN2oQmPMZ-51" value="" style="edgeStyle=orthogonalEdgeStyle;rounded=0;orthogonalLoop=1;jettySize=auto;html=1;" edge="1" parent="1" source="euIUzY9tBhmxN2oQmPMZ-48" target="euIUzY9tBhmxN2oQmPMZ-50">
          <mxGeometry relative="1" as="geometry" />
        </mxCell>
        <mxCell id="euIUzY9tBhmxN2oQmPMZ-48" value="gather" style="text;html=1;strokeColor=none;fillColor=none;align=center;verticalAlign=middle;whiteSpace=wrap;rounded=0;" vertex="1" parent="1">
          <mxGeometry x="170" y="440" width="50" height="20" as="geometry" />
        </mxCell>
        <mxCell id="euIUzY9tBhmxN2oQmPMZ-53" value="" style="edgeStyle=orthogonalEdgeStyle;rounded=0;orthogonalLoop=1;jettySize=auto;html=1;" edge="1" parent="1" source="euIUzY9tBhmxN2oQmPMZ-50" target="euIUzY9tBhmxN2oQmPMZ-52">
          <mxGeometry relative="1" as="geometry" />
        </mxCell>
        <mxCell id="euIUzY9tBhmxN2oQmPMZ-50" value="break down" style="text;html=1;strokeColor=none;fillColor=none;align=center;verticalAlign=middle;whiteSpace=wrap;rounded=0;" vertex="1" parent="1">
          <mxGeometry x="300" y="440" width="70" height="20" as="geometry" />
        </mxCell>
        <mxCell id="euIUzY9tBhmxN2oQmPMZ-55" value="" style="edgeStyle=orthogonalEdgeStyle;rounded=0;orthogonalLoop=1;jettySize=auto;html=1;" edge="1" parent="1" source="euIUzY9tBhmxN2oQmPMZ-52" target="euIUzY9tBhmxN2oQmPMZ-54">
          <mxGeometry relative="1" as="geometry" />
        </mxCell>
        <mxCell id="euIUzY9tBhmxN2oQmPMZ-52" value="analyse" style="text;html=1;strokeColor=none;fillColor=none;align=center;verticalAlign=middle;whiteSpace=wrap;rounded=0;" vertex="1" parent="1">
          <mxGeometry x="450" y="440" width="70" height="20" as="geometry" />
        </mxCell>
        <mxCell id="euIUzY9tBhmxN2oQmPMZ-54" value="remix" style="text;html=1;strokeColor=none;fillColor=none;align=center;verticalAlign=middle;whiteSpace=wrap;rounded=0;" vertex="1" parent="1">
          <mxGeometry x="600" y="440" width="70" height="20" as="geometry" />
        </mxCell>
        <mxCell id="euIUzY9tBhmxN2oQmPMZ-58" value="" style="edgeStyle=orthogonalEdgeStyle;rounded=0;orthogonalLoop=1;jettySize=auto;html=1;" edge="1" parent="1" source="euIUzY9tBhmxN2oQmPMZ-56" target="euIUzY9tBhmxN2oQmPMZ-57">
          <mxGeometry relative="1" as="geometry" />
        </mxCell>
        <mxCell id="euIUzY9tBhmxN2oQmPMZ-56" value="3rd" style="text;html=1;strokeColor=none;fillColor=none;align=center;verticalAlign=middle;whiteSpace=wrap;rounded=0;" vertex="1" parent="1">
          <mxGeometry x="40" y="480" width="50" height="20" as="geometry" />
        </mxCell>
        <mxCell id="euIUzY9tBhmxN2oQmPMZ-60" value="" style="edgeStyle=orthogonalEdgeStyle;rounded=0;orthogonalLoop=1;jettySize=auto;html=1;" edge="1" parent="1" source="euIUzY9tBhmxN2oQmPMZ-57" target="euIUzY9tBhmxN2oQmPMZ-59">
          <mxGeometry relative="1" as="geometry" />
        </mxCell>
        <mxCell id="euIUzY9tBhmxN2oQmPMZ-57" value="share" style="text;html=1;strokeColor=none;fillColor=none;align=center;verticalAlign=middle;whiteSpace=wrap;rounded=0;" vertex="1" parent="1">
          <mxGeometry x="200" y="480" width="50" height="20" as="geometry" />
        </mxCell>
        <mxCell id="euIUzY9tBhmxN2oQmPMZ-62" value="" style="edgeStyle=orthogonalEdgeStyle;rounded=0;orthogonalLoop=1;jettySize=auto;html=1;" edge="1" parent="1" source="euIUzY9tBhmxN2oQmPMZ-59" target="euIUzY9tBhmxN2oQmPMZ-61">
          <mxGeometry relative="1" as="geometry" />
        </mxCell>
        <mxCell id="euIUzY9tBhmxN2oQmPMZ-59" value="image" style="text;html=1;strokeColor=none;fillColor=none;align=center;verticalAlign=middle;whiteSpace=wrap;rounded=0;" vertex="1" parent="1">
          <mxGeometry x="300" y="480" width="50" height="20" as="geometry" />
        </mxCell>
        <mxCell id="euIUzY9tBhmxN2oQmPMZ-61" value="ocr" style="text;html=1;strokeColor=none;fillColor=none;align=center;verticalAlign=middle;whiteSpace=wrap;rounded=0;" vertex="1" parent="1">
          <mxGeometry x="430" y="480" width="50" height="20" as="geometry" />
        </mxCell>
        <mxCell id="euIUzY9tBhmxN2oQmPMZ-67" value="" style="edgeStyle=orthogonalEdgeStyle;rounded=0;orthogonalLoop=1;jettySize=auto;html=1;" edge="1" parent="1" source="euIUzY9tBhmxN2oQmPMZ-63" target="euIUzY9tBhmxN2oQmPMZ-66">
          <mxGeometry relative="1" as="geometry" />
        </mxCell>
        <mxCell id="euIUzY9tBhmxN2oQmPMZ-63" value="bot" style="text;html=1;strokeColor=none;fillColor=none;align=center;verticalAlign=middle;whiteSpace=wrap;rounded=0;" vertex="1" parent="1">
          <mxGeometry x="40" y="520" width="50" height="20" as="geometry" />
        </mxCell>
        <mxCell id="euIUzY9tBhmxN2oQmPMZ-66" value="react" style="text;html=1;strokeColor=none;fillColor=none;align=center;verticalAlign=middle;whiteSpace=wrap;rounded=0;" vertex="1" parent="1">
          <mxGeometry x="140" y="520" width="50" height="20" as="geometry" />
        </mxCell>
        <mxCell id="euIUzY9tBhmxN2oQmPMZ-73" value="" style="edgeStyle=orthogonalEdgeStyle;rounded=0;orthogonalLoop=1;jettySize=auto;html=1;" edge="1" parent="1" source="euIUzY9tBhmxN2oQmPMZ-71" target="euIUzY9tBhmxN2oQmPMZ-72">
          <mxGeometry relative="1" as="geometry" />
        </mxCell>
        <mxCell id="euIUzY9tBhmxN2oQmPMZ-71" value="crawler" style="text;html=1;strokeColor=none;fillColor=none;align=center;verticalAlign=middle;whiteSpace=wrap;rounded=0;" vertex="1" parent="1">
          <mxGeometry x="40" y="560" width="50" height="20" as="geometry" />
        </mxCell>
        <mxCell id="euIUzY9tBhmxN2oQmPMZ-75" value="" style="edgeStyle=orthogonalEdgeStyle;rounded=0;orthogonalLoop=1;jettySize=auto;html=1;" edge="1" parent="1" source="euIUzY9tBhmxN2oQmPMZ-72" target="euIUzY9tBhmxN2oQmPMZ-74">
          <mxGeometry relative="1" as="geometry" />
        </mxCell>
        <mxCell id="euIUzY9tBhmxN2oQmPMZ-72" value="process" style="text;html=1;strokeColor=none;fillColor=none;align=center;verticalAlign=middle;whiteSpace=wrap;rounded=0;" vertex="1" parent="1">
          <mxGeometry x="170" y="560" width="50" height="20" as="geometry" />
        </mxCell>
        <mxCell id="euIUzY9tBhmxN2oQmPMZ-74" value="extract" style="text;html=1;strokeColor=none;fillColor=none;align=center;verticalAlign=middle;whiteSpace=wrap;rounded=0;" vertex="1" parent="1">
          <mxGeometry x="300" y="560" width="50" height="20" as="geometry" />
        </mxCell>
      </root>
    </mxGraphModel>
  </diagram>
</mxfile>
